<mxfile host="app.diagrams.net" modified="2023-10-09T07:17:53.105Z" agent="Mozilla/5.0 (Macintosh; Intel Mac OS X 10_15_7) AppleWebKit/537.36 (KHTML, like Gecko) Chrome/117.0.0.0 Safari/537.36" version="22.0.4" etag="O0_wWmcEVWpVEG-Rx3cR" type="github">
  <diagram name="第 1 页" id="4TJEd6zHkG0AeSeym4Uv">
    <mxGraphModel>
      <root>
        <mxCell id="0" />
        <mxCell id="1" parent="0" />
      </root>
    </mxGraphModel>
  </diagram>
</mxfile>
